<?xml version="1.0" encoding="UTF-8"?>
<svg version="1.1" xmlns="http://www.w3.org/2000/svg" width="512" height="512">
<path d="M0 0 C22.60998193 -0.36164843 45.21761088 -0.6561717 67.82975388 -0.82899475 C78.32977832 -0.91138455 88.82787408 -1.02363141 99.32666016 -1.20703125 C108.48117713 -1.3668718 117.63429725 -1.46981375 126.79017091 -1.50541592 C131.63585822 -1.52621995 136.4775509 -1.57483017 141.32195282 -1.69168091 C173.20260765 -2.43159518 173.20260765 -2.43159518 179.97485352 3.48718262 C182.7773909 6.73340508 184.65528558 10.12947202 186.21992493 14.10825729 C187.30442838 16.73826248 188.89170352 18.89123003 190.59375 21.15625 C191.56543692 22.60219736 192.53426069 24.05007351 193.5 25.5 C198.563427 33.00262965 203.85817413 40.28600329 209.34375 47.484375 C217 57.58386949 217 57.58386949 217 60 C294.55 60 372.1 60 452 60 C452 209.16 452 358.32 452 512 C285.68 512 119.36 512 -52 512 C-52 365.81 -52 219.62 -52 69 C-43.42 69 -34.84 69 -26 69 C-26 57.45 -26 45.9 -26 34 C-17.42 34 -8.84 34 0 34 C0 22.78 0 11.56 0 0 Z " fill="#7383BF" transform="translate(56,0)"/>
<path d="M0 0 C22.60998193 -0.36164843 45.21761088 -0.6561717 67.82975388 -0.82899475 C78.32977832 -0.91138455 88.82787408 -1.02363141 99.32666016 -1.20703125 C108.48117713 -1.3668718 117.63429725 -1.46981375 126.79017091 -1.50541592 C131.63585822 -1.52621995 136.4775509 -1.57483017 141.32195282 -1.69168091 C173.20260765 -2.43159518 173.20260765 -2.43159518 179.97485352 3.48718262 C182.7773909 6.73340508 184.65528558 10.12947202 186.21992493 14.10825729 C187.30442838 16.73826248 188.89170352 18.89123003 190.59375 21.15625 C191.56543692 22.60219736 192.53426069 24.05007351 193.5 25.5 C198.563427 33.00262965 203.85817413 40.28600329 209.34375 47.484375 C217 57.58386949 217 57.58386949 217 60 C294.55 60 372.1 60 452 60 C452 83.1 452 106.2 452 130 C415.60802722 130.28669256 379.21712094 130.52668407 342.82434172 130.66384928 C338.52612166 130.68010811 334.22790399 130.69693434 329.9296875 130.71411133 C329.07400416 130.71752136 328.21832083 130.7209314 327.3367077 130.72444477 C313.48855723 130.78098442 299.64110962 130.88346715 285.79337586 131.00298635 C271.58007547 131.12463591 257.3671427 131.19678041 243.15334308 131.22315043 C234.38495365 131.24097292 225.61855083 131.2972164 216.85077314 131.40291407 C210.83505693 131.4717326 204.82036478 131.49238028 198.80428369 131.47551791 C195.33442694 131.46720379 191.86803516 131.4797655 188.39879799 131.54967117 C166.47047687 131.92685114 166.47047687 131.92685114 161.20971298 127.17763329 C158.52521038 124.09022992 156.7551209 120.69136699 155 117 C153.89621975 115.35900084 152.76948615 113.73270229 151.6015625 112.13671875 C150.60637863 110.65565482 149.61418356 109.17257818 148.625 107.6875 C144.43986389 101.48477589 140.1442571 95.40146109 135.625 89.4375 C135.12983887 88.78402588 134.63467773 88.13055176 134.12451172 87.45727539 C133.64771973 86.82813232 133.17092773 86.19898926 132.6796875 85.55078125 C123 72.7712646 123 72.7712646 123 70 C73.83 70 24.66 70 -26 70 C-26 58.12 -26 46.24 -26 34 C-17.42 34 -8.84 34 0 34 C0 22.78 0 11.56 0 0 Z " fill="#556080" transform="translate(56,0)"/>
<path d="M0 0 C74.25 0 148.5 0 225 0 C225 51.15 225 102.3 225 155 C150.75 155 76.5 155 0 155 C0 103.85 0 52.7 0 0 Z " fill="#ECE9D9" transform="translate(239,313)"/>
<path d="M0 0 C22.60998193 -0.36164843 45.21761088 -0.6561717 67.82975388 -0.82899475 C78.32977832 -0.91138455 88.82787408 -1.02363141 99.32666016 -1.20703125 C108.48117713 -1.3668718 117.63429725 -1.46981375 126.79017091 -1.50541592 C131.63585822 -1.52621995 136.4775509 -1.57483017 141.32195282 -1.69168091 C173.20260765 -2.43159518 173.20260765 -2.43159518 179.97485352 3.48718262 C182.7773909 6.73340508 184.65528558 10.12947202 186.21992493 14.10825729 C187.30442838 16.73826248 188.89170352 18.89123003 190.59375 21.15625 C191.56543692 22.60219736 192.53426069 24.05007351 193.5 25.5 C198.563427 33.00262965 203.85817413 40.28600329 209.34375 47.484375 C217 57.58386949 217 57.58386949 217 60 C294.55 60 372.1 60 452 60 C452 71.88 452 83.76 452 96 C418.95469003 96.38464512 385.9102447 96.68883931 352.86321141 96.8681106 C348.95812026 96.88937156 345.05303363 96.91137514 341.14794922 96.93383789 C340.37054649 96.93829717 339.59314376 96.94275645 338.79218337 96.94735085 C326.21895858 97.02124177 313.64706072 97.15522957 301.07462206 97.31159753 C288.16538533 97.47081025 275.25684142 97.5650474 262.34666324 97.59950441 C254.38516944 97.62278571 246.42742595 97.69617768 238.46708754 97.83457994 C232.35337644 97.93543388 226.24249814 97.94568304 220.12806892 97.92283058 C217.62696101 97.92749608 215.12570727 97.96116867 212.62544823 98.02649307 C194.21377101 98.48381665 194.21377101 98.48381665 188.82564831 94.31951594 C185.08212837 90.3150356 182.43498375 85.85759951 180.00778627 80.96731365 C178.71789708 78.44930294 177.12583625 76.2410292 175.40625 74 C174.67643921 72.99428955 174.67643921 72.99428955 173.93188477 71.96826172 C173.45936279 71.31873535 172.98684082 70.66920898 172.5 70 C167.65386025 63.31693971 162.86600831 56.59558701 158.1328125 49.83203125 C157.24649287 48.56908855 156.34758064 47.3148402 155.43329811 46.07199097 C154 44 154 44 152.92014122 41.90750122 C151.49720484 39.434302 150.22630818 37.80304414 148 36 C143.27727284 34.7997958 138.5734085 34.92851082 133.73291016 35 C132.27389375 34.99238862 130.81489209 34.98126528 129.35592651 34.96690369 C125.40544218 34.9379315 121.45655819 34.95797297 117.5061307 34.9869194 C113.37406086 35.00882797 109.24225001 34.98552044 105.11019897 34.96704102 C97.29034277 34.93892281 89.47110029 34.95137771 81.65126169 34.97846508 C72.74673105 35.00733016 63.84246372 34.99088054 54.93793035 34.97065353 C36.62502187 34.93006873 18.31290595 34.95227735 0 35 C0 23.45 0 11.9 0 0 Z " fill="#424A60" transform="translate(56,0)"/>
<path d="M0 0 C94.71 0 189.42 0 287 0 C287 20.13 287 40.26 287 61 C256.11989068 61.37512116 225.24198809 61.68886615 194.36031 61.8681106 C190.71058026 61.88937139 187.06085535 61.91137498 183.41113281 61.93383789 C182.68457053 61.93829717 181.95800825 61.94275645 181.20942894 61.94735085 C169.46063639 62.02122864 157.71326486 62.15520833 145.965314 62.31159753 C133.90133243 62.47084849 121.83809245 62.56505515 109.773103 62.59950441 C102.99958308 62.62069486 96.2290195 62.67143297 89.45656586 62.79741096 C83.07626583 62.9131407 76.70049433 62.94833724 70.31924438 62.92283058 C67.98260081 62.9274934 65.64580011 62.96113144 63.31006622 63.02649307 C46.11854681 63.48381922 46.11854681 63.48381922 40.89007664 59.31951594 C37.18666143 55.29354664 34.50916895 50.82255299 32.0329318 45.9673146 C30.71813938 43.46317025 29.12157836 41.24401926 27.40625 39 C26.67643921 37.9944104 26.67643921 37.9944104 25.93188477 36.96850586 C25.45936279 36.31889893 24.98684082 35.66929199 24.5 35 C20.15493974 29.00200668 15.83833703 22.98506295 11.5625 16.9375 C11.09070313 16.27169922 10.61890625 15.60589844 10.1328125 14.91992188 C6.66310977 10.00041418 3.34242149 5.01363223 0 0 Z " fill="#EAB916" transform="translate(221,130)"/>
<path d="M0 0 C45.87 0 91.74 0 139 0 C139 5.61 139 11.22 139 17 C93.13 17 47.26 17 0 17 C0 11.39 0 5.78 0 0 Z " fill="#CEC9AE" transform="translate(282,417)"/>
<path d="M0 0 C45.87 0 91.74 0 139 0 C139 5.61 139 11.22 139 17 C93.13 17 47.26 17 0 17 C0 11.39 0 5.78 0 0 Z " fill="#CEC9AE" transform="translate(282,382)"/>
<path d="M0 0 C28.71 0 57.42 0 87 0 C87 5.94 87 11.88 87 18 C58.29 18 29.58 18 0 18 C0 12.06 0 6.12 0 0 Z " fill="#CFCAAF" transform="translate(282,347)"/>
</svg>
